# xmcd CD database file
#
# Track frame offsets:
#	182
#	26187
#	62592
#	93147
#	121565
#	150587
#	184322
#	230512
#
# Disc length: 3434 seconds
#
# Revision: 0
# Processed by: cddbd v1.4PL0 Copyright (c) Steve Scherf et al.
# Submitted via: CDex 1.50
#
DISCID=5a0d6808
DTITLE=John McNeil and Tom Harrell - Look to the Sky
DYEAR=1979
DGENRE=Jazz
TTITLE0=Chasin' the Bird
TTITLE1=Namely You
TTITLE2=Terrestris
TTITLE3=Little Dancer
TTITLE4=Look to the Sky
TTITLE5=Unit 7
TTITLE6=Look to the Sky (alt.)
TTITLE7=Chasin' the Bird (alt.)
EXTD=YEAR: 1979
EXTT0=
EXTT1=
EXTT2=
EXTT3=
EXTT4=
EXTT5=
EXTT6=
EXTT7=
PLAYORDER=
